<svg width="48" height="80" viewBox="0 0 48 80" fill="none" xmlns="http://www.w3.org/2000/svg">
<path fill-rule="evenodd" clip-rule="evenodd" d="M23.6439 23.8018L22.9474 23.8139C22.3755 23.8292 21.8252 23.8573 21.2958 23.8988L20.6706 23.955C20.568 23.9655 20.4663 23.9765 20.3654 23.9881L19.77 24.064C19.6724 24.0778 19.5756 24.0921 19.4796 24.107L18.9135 24.2031C13.8131 25.1462 11.1459 27.8134 10.2028 32.9138L10.1067 33.4799C10.0919 33.5759 10.0775 33.6726 10.0638 33.7702L9.98782 34.3657C9.97626 34.4665 9.96526 34.5683 9.95479 34.6708L9.89852 35.296C9.85702 35.8254 9.82891 36.3758 9.81367 36.9476L9.80151 37.6442V38.3563L9.81367 39.0529C9.82891 39.6247 9.85702 40.1751 9.89852 40.7045L9.95479 41.3297C9.96526 41.4322 9.97626 41.5339 9.98782 41.6348L10.0638 42.2303C10.0775 42.3279 10.0919 42.4246 10.1067 42.5206L10.2028 43.0867C11.1459 48.1871 13.8131 50.8543 18.9135 51.7974L19.4796 51.8935C19.5756 51.9084 19.6724 51.9227 19.77 51.9365L20.3654 52.0124C20.4663 52.024 20.568 52.035 20.6706 52.0455L21.2958 52.1017C21.8252 52.1432 22.3755 52.1713 22.9474 52.1866L23.6439 52.1987C23.7617 52.1997 23.8804 52.2002 24 52.2002L24.3561 52.1987L25.0526 52.1866C25.6245 52.1713 26.1748 52.1432 26.7042 52.1017L27.3295 52.0455C27.432 52.035 27.5337 52.024 27.6346 52.0124L28.23 51.9365C28.3276 51.9227 28.4244 51.9084 28.5204 51.8935L29.0865 51.7974C34.1869 50.8543 36.8541 48.1871 37.7972 43.0867L37.8933 42.5206C37.9082 42.4246 37.9225 42.3279 37.9362 42.2303L38.0122 41.6348C38.0237 41.5339 38.0348 41.4322 38.0452 41.3297L38.1015 40.7045C38.143 40.1751 38.1711 39.6247 38.1863 39.0529L38.1985 38.3563C38.1995 38.2385 38.2 38.1198 38.2 38.0002L38.1985 37.6442L38.1863 36.9476C38.1711 36.3758 38.143 35.8254 38.1015 35.296L38.0452 34.6708C38.0348 34.5683 38.0237 34.4665 38.0122 34.3657L37.9362 33.7702C37.9225 33.6726 37.9082 33.5759 37.8933 33.4799L37.7972 32.9138C36.8541 27.8134 34.1869 25.1462 29.0865 24.2031L28.5204 24.107C28.4244 24.0921 28.3276 24.0778 28.23 24.064L27.6346 23.9881C27.5337 23.9765 27.432 23.9655 27.3295 23.955L26.7042 23.8988C26.1748 23.8573 25.6245 23.8292 25.0526 23.8139L24.3561 23.8018H23.6439ZM24.3353 26.3015L24.9884 26.3117C25.0952 26.3143 25.2012 26.3173 25.3061 26.3208L25.9243 26.347C26.0255 26.3523 26.1257 26.358 26.2249 26.3642L26.8091 26.4072C27.0001 26.4234 27.1875 26.4416 27.3711 26.4617L27.9112 26.5282C32.6745 27.1811 34.8192 29.3257 35.4721 34.089L35.5386 34.6291C35.5587 34.8128 35.5769 35.0001 35.5931 35.1911L35.636 35.7754C35.6422 35.8746 35.648 35.9748 35.6533 36.0759L35.6795 36.6941C35.6829 36.7991 35.6859 36.905 35.6885 37.0119L35.6987 37.6649C35.6996 37.7757 35.7 37.8875 35.7 38.0002L35.6949 38.665C35.6915 38.8827 35.6864 39.0964 35.6795 39.3064L35.6533 39.9246C35.648 40.0257 35.6422 40.1259 35.636 40.2251L35.5931 40.8094C35.5769 41.0004 35.5587 41.1877 35.5386 41.3714L35.4721 41.9115C34.8192 46.6748 32.6745 48.8194 27.9112 49.4723L27.3711 49.5388C27.1875 49.5589 27.0001 49.5771 26.8091 49.5933L26.2249 49.6363C26.1257 49.6425 26.0255 49.6482 25.9243 49.6535L25.3061 49.6797C25.2012 49.6832 25.0952 49.6862 24.9884 49.6888L24.3353 49.699C24.2245 49.6998 24.1128 49.7002 24 49.7002L23.3352 49.6952C23.1176 49.6918 22.9038 49.6866 22.6939 49.6797L22.0757 49.6535C21.9745 49.6482 21.8744 49.6425 21.7751 49.6363L21.1909 49.5933C20.9999 49.5771 20.8126 49.5589 20.6289 49.5388L20.0888 49.4723C15.3255 48.8194 13.1808 46.6748 12.5279 41.9115L12.4615 41.3714C12.4413 41.1877 12.4231 41.0004 12.4069 40.8094L12.364 40.2251C12.3578 40.1259 12.352 40.0257 12.3468 39.9246L12.3206 39.3064C12.3171 39.2014 12.3141 39.0955 12.3115 38.9886L12.3013 38.3356V37.6649L12.3115 37.0119C12.3141 36.905 12.3171 36.7991 12.3206 36.6941L12.3468 36.0759C12.352 35.9748 12.3578 35.8746 12.364 35.7754L12.4069 35.1911C12.4231 35.0001 12.4413 34.8128 12.4615 34.6291L12.5279 34.089C13.1808 29.3257 15.3255 27.1811 20.0888 26.5282L20.6289 26.4617C20.8126 26.4416 20.9999 26.4234 21.1909 26.4072L21.7751 26.3642C21.8744 26.358 21.9745 26.3523 22.0757 26.347L22.6939 26.3208C22.7989 26.3173 22.9048 26.3143 23.0117 26.3117L23.6647 26.3015H24.3353ZM28.2495 32.1845L21.2075 34.3881C20.8165 34.5105 20.5102 34.8167 20.3878 35.2077L18.1842 42.2497C17.8829 43.2126 18.7877 44.1173 19.7505 43.816L26.7925 41.6124C27.1835 41.49 27.4898 41.1838 27.6122 40.7928L29.8158 33.7508C30.1171 32.7879 29.2124 31.8832 28.2495 32.1845ZM26.716 35.2832L25.421 39.4212L21.283 40.7162L22.578 36.5782L26.716 35.2832Z" fill="black"/>
</svg>
