<svg xmlns="http://www.w3.org/2000/svg" viewBox="0 0 117 116"><defs><style>.cls-1{fill:#fcfcfc;}.cls-2{fill:#e0e0e0;}.cls-3{fill:#040404;}.cls-4{fill:#050505;}.cls-5{fill:#060606;}</style></defs><g id="Layer_2" data-name="Layer 2"><g id="Layer_1-2" data-name="Layer 1"><path class="cls-1" d="M48,0H72a7,7,0,0,1-.27,1.46c-3,7-3.07,7.14,4.15,10,9,3.56,16.58,9.15,21.88,17,3.6,5.37,5.88,11.73,8.16,17.86,1.88,5,3.21,6.13,8.24,4.51.94-.3,1.89-.57,2.84-.86V66c-8.53-1.36-8.84-1.49-12.19,6.58-5.2,12.52-12.59,22.8-25.29,28.71-9.33,4.34-9.23,4.53-8.52,14.71H48c3.91-9.07,3.71-9.46-6.2-12.93A46.63,46.63,0,0,1,18,84.29C5.09,64.81,6.67,35.43,28,20.11c7-5,14.51-9.18,21.69-13.67Zm2.42,19.29a64.83,64.83,0,0,0-7.12,1.82c-13.71,5.29-24,21.13-23.95,36.75C19.38,72,30.2,88.11,43.17,93.24c1.38.54,2.95,1.35,4.27,1.12s3.25-1.52,3.39-2.55a18.24,18.24,0,0,0-5.11-16c-8.35-8.65-8.7-26.52-.58-35.4C50.59,34.47,52,27.81,50.42,19.29Zm19.86,1.58c-3.83,15.69,10.85,32.6,25.83,29.74C96.05,37.09,83.12,22.2,70.28,20.87Zm0,72.94c12.16-.77,27.51-19,25.33-28.36A24.59,24.59,0,0,0,70.28,93.81Z"/><path class="cls-2" d="M48,0l1.67,6.44C42.49,10.93,34.94,15.1,28,20.11,6.67,35.43,5.09,64.81,18,84.29A46.63,46.63,0,0,0,41.8,103.07c9.91,3.47,10.11,3.86,6.2,12.93H0V0Z"/><path class="cls-2" d="M71,116c-.71-10.18-.81-10.37,8.52-14.71,12.7-5.91,20.09-16.19,25.29-28.71,3.35-8.07,3.66-7.94,12.19-6.58v50Z"/><path class="cls-2" d="M117,50c-1,.29-1.9.56-2.84.86-5,1.62-6.36.52-8.24-4.51-2.28-6.13-4.56-12.49-8.16-17.86-5.3-7.89-12.9-13.48-21.88-17-7.22-2.85-7.17-2.95-4.15-10A7,7,0,0,0,72,0h45Z"/><path class="cls-3" d="M50.42,19.29c1.57,8.52.17,15.18-5.28,21.14-8.12,8.88-7.77,26.75.58,35.4a18.24,18.24,0,0,1,5.11,16c-.14,1-2.1,2.32-3.39,2.55s-2.89-.58-4.27-1.12C30.2,88.11,19.38,72,19.35,57.86c0-15.62,10.24-31.46,23.95-36.75A64.83,64.83,0,0,1,50.42,19.29Z"/><path class="cls-4" d="M70.28,20.87C83.12,22.2,96.05,37.09,96.11,50.61,81.13,53.47,66.45,36.56,70.28,20.87Z"/><path class="cls-5" d="M70.28,93.81A24.59,24.59,0,0,1,95.61,65.45C97.79,74.83,82.44,93,70.28,93.81Z"/></g></g></svg>